<?xml version="1.0" standalone="no"?>
<!DOCTYPE svg PUBLIC "-//W3C//DTD SVG 20010904//EN"
 "http://www.w3.org/TR/2001/REC-SVG-20010904/DTD/svg10.dtd">
<svg version="1.0" xmlns="http://www.w3.org/2000/svg"
 width="498.000000pt" height="280.000000pt" viewBox="0 0 498.000000 280.000000"
 preserveAspectRatio="xMidYMid meet">

<g transform="translate(0.000000,280.000000) scale(0.100000,-0.100000)"
fill="#000000" stroke="none">
<path d="M9 2796 c-1 -1 -2 -13 -3 -28 -2 -16 3 -29 12 -33 23 -8 67 18 70 43
3 21 0 23 -37 20 -23 -1 -41 -2 -42 -2z m17 -32 c1 -9 0 -13 -4 -10 -3 4 -7
14 -8 22 -1 9 0 13 4 10 3 -4 7 -14 8 -22z"/>
<path d="M630 2780 c-6 -11 -15 -20 -21 -20 -6 0 -7 6 -3 13 4 6 3 8 -1 4 -5
-4 -10 -14 -11 -22 -2 -12 2 -13 17 -4 11 6 23 17 25 24 5 11 9 12 19 2 7 -7
10 -16 7 -21 -3 -5 0 -6 7 -2 9 6 8 13 -5 27 -21 23 -21 23 -34 -1z"/>
<path d="M853 2775 c-13 -13 -21 -35 -21 -53 1 -16 -2 -34 -6 -40 -10 -16 20
-40 64 -52 41 -11 322 -19 360 -10 15 4 24 13 25 29 1 12 8 26 15 31 20 12 7
33 -31 46 -35 12 -36 14 -24 52 l6 22 -183 -1 c-179 0 -184 -1 -205 -24z m325
-39 c9 -10 -30 -35 -67 -42 -31 -6 -50 4 -51 27 0 20 99 33 118 15z"/>
<path d="M1433 2777 c-18 -39 -10 -83 18 -106 20 -15 29 -17 37 -9 8 8 12 9
12 1 0 -6 7 -14 16 -17 15 -6 15 -4 3 11 -13 17 -13 17 6 1 18 -15 48 -17 240
-17 250 0 268 -2 294 -25 36 -33 33 -56 -11 -97 -23 -21 -45 -36 -50 -33 -13
8 -9 -10 5 -25 10 -11 10 -13 0 -7 -26 14 -12 -22 14 -39 37 -25 76 -28 321
-29 116 -1 212 -5 212 -10 0 -4 13 -6 30 -4 25 4 28 2 17 -11 -10 -12 -9 -14
6 -8 13 5 17 1 17 -19 0 -14 4 -23 9 -19 5 3 13 0 17 -6 4 -8 3 -9 -4 -5 -7 4
-12 3 -12 -2 0 -12 -68 -42 -103 -44 -18 -2 -26 -7 -23 -15 3 -7 1 -13 -4 -13
-24 0 -7 -19 23 -26 17 -4 35 -9 40 -10 4 -1 10 -3 15 -4 7 -3 16 -5 37 -10 6
-1 24 -1 41 0 36 2 48 -11 69 -70 l15 -42 -28 7 c-15 3 -44 9 -65 12 -20 3
-39 9 -42 13 -3 5 -51 6 -107 3 -100 -6 -101 -6 -96 15 7 24 7 24 -65 24 -35
0 -55 6 -74 22 l-26 23 37 22 c70 43 39 73 -82 79 -50 3 -96 10 -108 19 -12 7
-35 13 -51 11 -25 -2 -29 -6 -25 -25 4 -21 -10 -33 -53 -43 -5 -1 -21 -7 -35
-12 -32 -13 -64 -19 -57 -12 8 8 -16 33 -26 27 -5 -3 -11 4 -14 15 -3 13 -11
18 -19 15 -8 -3 -14 1 -14 11 0 9 -7 16 -15 16 -7 0 -18 6 -22 14 -4 7 -15 16
-23 19 -14 5 19 11 46 8 6 -1 17 5 24 14 10 12 10 16 -1 19 -45 14 -50 17 -47
33 2 10 13 19 26 21 30 4 46 36 32 62 -14 26 -44 33 -119 27 -60 -4 -87 7 -60
24 25 15 -4 27 -71 29 -86 3 -90 2 -84 -14 3 -8 27 -17 55 -21 27 -4 49 -10
49 -15 0 -6 -71 -22 -95 -21 -2 0 -23 -6 -46 -14 -22 -8 -55 -13 -72 -10 -18
2 -56 6 -85 9 -29 3 -58 8 -64 12 -6 4 -8 3 -5 -3 4 -6 -17 -13 -54 -17 -33
-3 -75 -12 -92 -20 -135 -59 -199 -92 -213 -107 -10 -11 -21 -19 -26 -19 -19
0 -105 -65 -169 -127 l-65 -64 -50 11 c-27 6 -58 17 -70 25 -59 38 -260 91
-452 119 l-22 3 0 -538 0 -538 57 -12 c32 -6 65 -12 73 -14 11 -1 14 -13 11
-46 -1 -24 -5 -48 -8 -53 -3 -4 -34 -5 -69 -1 l-64 7 0 -556 0 -556 620 0 620
0 19 38 c11 20 34 52 51 69 28 30 37 33 90 33 32 0 62 -4 65 -10 3 -5 -3 -10
-14 -10 -19 0 -45 -28 -85 -92 l-18 -27 39 4 c21 1 44 3 52 4 8 1 11 8 8 21
-3 11 -1 18 4 14 5 -3 9 1 9 8 0 10 2 11 8 0 5 -8 16 -10 27 -6 11 5 16 3 12
-2 -3 -6 4 -11 15 -11 21 -2 21 -2 -1 13 -11 8 -21 19 -21 24 0 4 48 27 108
50 100 39 110 41 155 31 57 -13 240 -95 283 -128 l31 -23 866 2 866 3 -40 85
c-68 142 -121 271 -115 277 3 3 15 -1 27 -8 25 -17 164 -322 149 -327 -6 -2
-10 -10 -10 -18 0 -12 86 -14 580 -14 l580 0 0 533 0 532 -46 2 c-52 2 -94 25
-94 51 0 11 -18 26 -51 42 -28 13 -54 30 -57 38 -6 16 34 55 48 47 4 -3 13 2
20 11 23 27 -4 36 -122 40 -136 5 -173 10 -206 32 -16 10 -51 17 -99 19 -41 1
-80 6 -86 10 -7 4 -15 8 -19 9 -5 1 -11 2 -15 3 -3 0 2 10 11 20 22 24 15 37
-23 44 -23 5 -28 10 -24 26 5 18 57 51 81 51 18 0 24 20 12 35 -17 21 -87 38
-140 35 -60 -3 -84 -3 -157 -1 -60 1 -63 2 -78 35 -9 19 -15 49 -13 67 4 27 8
33 26 32 12 0 23 -2 25 -3 4 -3 42 -12 63 -14 11 -1 24 -5 30 -8 5 -3 46 -6
92 -7 46 -1 87 -2 90 -2 4 -1 37 -1 75 0 50 1 67 5 67 15 0 8 7 16 15 20 22 8
18 33 -5 39 -31 8 -25 43 10 56 33 11 39 35 16 67 -13 17 -25 19 -99 16 -76
-2 -85 0 -90 17 -3 12 -13 19 -32 19 -27 0 -54 24 -35 30 6 2 10 10 10 18 0
18 -86 20 -93 2 -4 -8 -6 -7 -6 3 -1 19 -37 35 -95 43 -47 6 -65 21 -48 38 19
19 14 28 -18 39 -18 7 -30 18 -30 28 0 26 -10 32 -32 20 -11 -6 -22 -8 -25 -6
-3 3 14 15 38 28 40 20 42 22 24 35 -20 15 -35 17 -125 18 l-54 1 -18 79 c-18
77 -50 146 -69 146 -5 0 -20 -24 -33 -52 -30 -68 -97 -158 -116 -158 -19 0
-100 75 -100 93 0 7 -14 20 -31 30 -17 9 -29 23 -27 30 4 10 38 31 83 50 6 3
3 12 -6 21 -21 22 -147 35 -159 16 -7 -11 -12 -11 -23 -2 -8 7 -34 11 -58 11
-66 -2 -81 0 -75 10 3 4 -3 16 -14 26 -15 14 -24 15 -47 6 -28 -11 -28 -11 -2
-6 32 6 53 -14 37 -35 -8 -12 -9 -12 -4 3 3 9 0 17 -5 17 -6 0 -9 -10 -7 -23
3 -17 0 -23 -14 -24 -12 -1 -18 5 -17 20 0 21 1 21 9 2 8 -19 9 -19 9 3 1 24
-6 27 -28 13 -7 -5 -11 -13 -7 -19 3 -6 2 -13 -3 -17 -6 -3 -8 -12 -4 -20 3
-8 0 -15 -7 -15 -8 0 -7 -8 5 -26 9 -14 14 -28 11 -32 -3 -3 -6 0 -6 6 0 6
-12 19 -26 29 -25 16 -27 16 -40 -2 -17 -22 -11 -29 -63 78 -35 71 -41 90 -31
102 7 8 9 15 4 15 -5 0 2 10 16 21 l25 20 -22 16 c-31 21 -29 40 7 58 32 17
38 39 16 68 -12 15 -36 17 -250 17 -130 0 -236 -2 -236 -5 0 -15 35 -72 51
-83 20 -14 26 -57 9 -67 -6 -4 -7 1 -3 11 5 13 2 15 -18 9 -13 -4 -27 -12 -31
-18 -9 -14 0 -29 13 -21 5 3 6 10 3 16 -4 5 5 2 20 -7 24 -16 39 -34 16 -20
-5 3 -10 2 -10 -3 0 -5 11 -12 25 -14 14 -3 25 -1 25 4 0 19 21 -5 50 -55 16
-29 30 -54 30 -57 0 -3 -42 -4 -94 -2 -85 3 -93 5 -89 22 7 25 -11 33 -84 36
-89 4 -122 12 -119 30 1 9 9 20 17 24 11 8 12 13 2 30 -19 29 -16 39 12 52 29
13 33 49 9 69 -9 8 -42 22 -73 31 -49 15 -99 18 -382 18 l-326 0 -10 -23z
m1327 -21 c0 -8 -7 -16 -15 -20 -10 -4 -15 1 -15 14 0 11 7 20 15 20 8 0 15
-6 15 -14z m-920 -52 c0 -13 -75 -23 -92 -13 -10 7 -4 13 37 35 22 11 55 -2
55 -22z m330 -148 c0 -3 -4 -8 -10 -11 -5 -3 -10 -1 -10 4 0 6 5 11 10 11 6 0
10 -2 10 -4z m-801 -90 c-2 -3 -39 -6 -80 -7 -51 -2 -75 -7 -72 -15 4 -12 3
-12 -87 -17 -75 -4 -141 -30 -250 -98 -48 -30 -74 -53 -74 -63 1 -12 -2 -14
-10 -7 -8 7 -18 -2 -34 -29 -14 -24 -18 -41 -12 -45 6 -4 10 -3 9 2 -3 20 2
34 11 28 6 -4 10 -3 9 2 -1 4 -1 15 0 23 1 11 4 11 13 2 9 -9 8 -16 -5 -30 -9
-10 -14 -22 -10 -25 3 -4 1 -7 -6 -7 -7 0 -9 -4 -6 -10 3 -6 -1 -7 -9 -4 -8 3
-18 15 -22 27 -6 20 -6 20 -18 -2 -7 -12 -15 -19 -18 -16 -8 8 -52 -54 -76
-107 -11 -27 -24 -48 -27 -48 -3 0 -3 5 1 12 5 8 2 9 -9 5 -21 -8 -21 -5 2 37
77 136 131 187 321 298 96 56 166 84 230 91 51 6 234 8 229 3z m1965 -120 c45
-45 97 -94 116 -111 l33 -29 29 34 c33 40 92 137 103 169 25 79 82 -86 86
-249 1 -51 6 -73 16 -77 12 -5 63 11 137 42 17 8 18 5 12 -31 -4 -21 -24 -70
-44 -109 -32 -61 -40 -70 -62 -68 l-25 3 23 -10 c17 -7 22 -17 20 -32 -3 -20
-9 -23 -43 -22 -104 3 -281 39 -319 66 -19 13 -27 16 -24 7 8 -26 72 -48 198
-68 69 -12 135 -21 148 -21 12 0 22 -5 22 -10 0 -7 -13 -9 -32 -6 -195 32
-334 47 -355 37 -25 -12 -43 -47 -43 -86 0 -25 -17 -33 -108 -51 -37 -7 -36
-12 -32 146 2 119 -7 96 -16 -35 -3 -61 -8 -113 -10 -117 -2 -3 -22 -9 -44
-13 -22 -4 -42 -11 -46 -16 -3 -5 -9 -7 -13 -5 -4 3 -8 -5 -8 -16 -1 -11 -10
-29 -19 -39 -24 -27 -30 -108 -10 -147 19 -36 43 -52 80 -52 20 0 26 -5 26
-23 0 -37 41 -149 67 -184 l23 -32 -44 -21 c-25 -11 -48 -20 -51 -20 -7 0 5
69 16 91 7 14 0 16 -51 17 -91 1 -96 8 -50 67 22 28 40 53 40 56 0 4 -17 9
-38 12 -20 4 -62 18 -92 33 -30 14 -66 31 -80 36 -25 10 -25 10 40 72 l65 61
-78 55 c-43 30 -87 67 -98 82 l-20 27 37 16 c20 8 39 15 43 15 3 0 33 22 66
50 33 27 66 50 73 50 22 0 13 27 -43 137 -30 59 -55 112 -55 116 0 5 12 6 28
3 15 -3 63 -8 107 -11 44 -3 92 -8 106 -11 l25 -5 12 128 c7 70 12 150 12 176
l0 48 31 -22 c17 -12 68 -58 113 -103z m-2064 99 c0 -7 -30 -13 -34 -7 -3 4 4
9 15 9 10 1 19 0 19 -2z m1030 -5 c0 -5 -9 -10 -21 -10 -11 0 -17 5 -14 10 3
6 13 10 21 10 8 0 14 -4 14 -10z m-685 -57 c28 -14 70 -42 94 -62 24 -20 54
-41 65 -48 16 -9 17 -12 5 -13 -9 0 -30 14 -48 30 -17 17 -71 51 -119 76 -48
25 -89 48 -92 51 -9 10 45 -10 95 -34z m1345 6 c0 -6 -4 -7 -10 -4 -5 3 -10
11 -10 16 0 6 5 7 10 4 6 -3 10 -11 10 -16z m178 -27 c2 -7 -6 -12 -17 -12
-21 0 -27 11 -14 24 9 9 26 2 31 -12z m-148 -27 c0 -8 -2 -15 -4 -15 -2 0 -6
7 -10 15 -3 8 -1 15 4 15 6 0 10 -7 10 -15z m168 -85 l-3 -45 -47 1 c-150 4
-135 -1 -151 47 l-14 43 109 -1 109 0 -3 -45z m-1643 -3 c152 -51 284 -147
349 -255 35 -58 83 -198 72 -209 -10 -11 -189 35 -308 78 -134 48 -373 116
-440 125 -45 6 -50 5 -75 -26 -16 -17 -37 -42 -48 -54 -11 -12 -63 -36 -115
-55 -52 -18 -116 -41 -142 -52 -66 -27 -71 -26 -63 19 8 44 39 142 54 170 53
100 233 232 370 272 96 28 238 23 346 -13z m635 -56 c0 -12 -21 -19 -37 -13
-22 8 -14 22 12 22 14 0 25 -4 25 -9z m-172 -28 c24 -23 27 -24 146 -27 56 -2
108 -6 116 -9 14 -6 61 -14 119 -22 13 -2 27 -8 30 -13 5 -9 37 -21 65 -26 6
-1 26 -10 45 -20 18 -10 30 -12 26 -6 -5 8 -3 11 6 8 8 -3 14 -16 15 -29 1
-13 4 -31 8 -40 4 -10 1 -23 -8 -32 -8 -8 -12 -18 -8 -22 4 -5 1 -5 -5 -1 -7
4 -23 1 -35 -6 -23 -12 -29 -14 -49 -17 -5 0 -7 -5 -4 -11 3 -5 0 -7 -8 -4 -9
3 -28 -8 -46 -25 l-32 -31 26 -10 c29 -11 25 -30 -6 -30 -23 0 -24 -13 -3 -34
37 -37 78 -44 297 -47 74 -1 122 -6 130 -13 7 -6 25 -21 41 -34 16 -12 22 -22
15 -22 -15 0 -84 17 -109 27 -8 3 -31 7 -50 10 -19 2 -51 8 -70 13 -49 14
-137 12 -178 -2 -28 -10 -36 -10 -39 0 -6 15 -35 16 -50 1 -6 -6 -26 -11 -44
-12 -40 -2 -63 -36 -54 -82 3 -16 5 -55 5 -85 -1 -35 6 -73 18 -101 11 -24 20
-69 20 -99 1 -66 46 -260 62 -270 7 -4 47 -13 89 -19 137 -21 127 -16 123 -62
l-4 -40 -24 22 c-14 13 -29 19 -40 15 -9 -4 -28 1 -43 11 -20 13 -44 16 -105
14 -72 -2 -78 0 -74 17 4 14 0 18 -16 17 -36 -4 -57 13 -50 39 5 22 2 24 -43
29 -26 3 -79 14 -118 25 -69 19 -70 19 -67 50 2 30 0 32 -38 38 -35 6 -40 9
-34 28 3 11 12 31 20 43 8 12 11 29 8 37 -9 22 122 148 155 149 l26 0 -23 10
c-20 9 -23 16 -18 40 3 16 6 36 6 43 0 8 6 11 16 7 13 -5 13 -7 2 -14 -10 -7
-10 -9 2 -9 45 0 49 33 5 42 -17 3 -20 10 -17 52 6 75 -10 101 -76 123 -61 20
-62 22 -87 106 -16 55 -16 60 0 77 39 43 22 184 -26 228 -18 17 -17 18 11 20
17 1 37 -5 48 -15z m1067 7 c3 -5 2 -10 -4 -10 -5 0 -13 5 -16 10 -3 6 -2 10
4 10 5 0 13 -4 16 -10z m682 -12 c-3 -8 -6 -5 -6 6 -1 11 2 17 5 13 3 -3 4
-12 1 -19z m-1790 -110 c-3 -7 -5 -2 -5 12 0 14 2 19 5 13 2 -7 2 -19 0 -25z
m-1374 -48 c-3 -12 -8 -19 -11 -16 -5 6 5 36 12 36 2 0 2 -9 -1 -20z m3356
-10 c12 0 21 -5 21 -11 0 -5 5 -7 10 -4 6 4 17 2 25 -5 10 -9 16 -7 25 7 9 16
10 15 4 -6 -4 -15 -2 -21 4 -17 6 3 13 2 16 -3 4 -5 2 -12 -3 -15 -10 -7 -9
-25 2 -43 4 -6 3 -14 -3 -18 -6 -4 -7 -11 -4 -17 4 -6 2 -8 -3 -5 -12 8 -39
-20 -30 -30 4 -3 20 0 37 7 17 7 33 10 37 6 3 -3 1 -6 -5 -6 -6 0 -9 -7 -5
-15 3 -9 -2 -24 -11 -34 -9 -10 -14 -20 -11 -22 4 -5 -23 -9 -65 -9 -20 0 -22
-2 -10 -10 13 -8 12 -10 -2 -10 -10 0 -18 3 -19 8 -2 23 -10 56 -15 61 -5 5
-19 9 -77 18 -21 3 -39 9 -41 12 -10 15 16 108 39 143 22 32 29 37 45 28 10
-5 28 -10 39 -10z m136 -41 c4 -10 3 -23 0 -29 -3 -5 -1 -10 4 -10 6 0 11 10
11 23 0 17 2 19 10 7 12 -20 -4 -37 -35 -37 -23 0 -24 1 -8 12 10 8 15 17 10
21 -4 4 -7 2 -7 -4 0 -7 -5 -12 -11 -12 -8 0 -7 6 2 17 11 13 11 17 2 20 -7 3
-13 9 -13 14 0 15 29 -2 35 -22z m75 -4 c0 -5 -5 -3 -10 5 -5 8 -10 20 -10 25
0 6 5 3 10 -5 5 -8 10 -19 10 -25z m-3587 10 c-3 -9 -8 -14 -10 -11 -3 3 -2 9
2 15 9 16 15 13 8 -4z m787 -50 c69 -21 130 -42 135 -47 7 -6 0 -18 -20 -33
-25 -21 -26 -23 -8 -19 12 4 28 12 34 20 16 19 49 18 65 -3 33 -44 0 -173 -60
-239 -36 -39 -47 -46 -91 -50 -62 -6 -101 12 -97 44 4 25 -24 32 -30 7 -5 -25
-44 8 -70 58 -30 59 -41 111 -42 194 -1 57 3 76 19 92 10 12 24 20 29 18 6 -2
67 -21 136 -42z m1428 29 c-6 -31 -108 -50 -108 -20 0 18 38 35 78 35 26 1 33
-3 30 -15z m88 -85 c12 -38 12 -39 -15 -39 -28 1 -61 21 -61 38 0 14 51 54 59
46 3 -3 11 -23 17 -45z m1244 27 c0 -2 -8 -10 -17 -17 -16 -13 -17 -12 -4 4
13 16 21 21 21 13z m211 -47 c-16 -13 -36 -19 -55 -17 -42 4 -36 18 16 38 52
20 75 8 39 -21z m-1572 5 c4 3 13 1 21 -4 11 -7 7 -11 -15 -19 -17 -6 -38 -16
-47 -21 -10 -6 -31 -10 -48 -10 -23 0 -30 5 -30 19 0 10 7 24 15 31 8 7 15 9
15 6 0 -4 8 -3 17 3 10 5 26 5 41 0 13 -5 27 -7 31 -5z m783 -25 c43 -6 83
-18 89 -25 8 -9 9 -33 3 -71 -4 -32 -7 -63 -6 -69 3 -18 -54 -74 -76 -74 -74
0 -176 105 -128 132 29 16 17 45 -16 39 -11 -2 -10 47 2 68 6 11 18 17 32 15
13 -1 58 -8 100 -15z m598 -4 c0 -8 -4 -15 -9 -15 -13 0 -22 16 -14 24 11 11
23 6 23 -9z m-3026 -94 c-3 -3 -15 -6 -27 -6 -12 0 -21 -5 -20 -12 2 -7 -4
-10 -13 -6 -10 4 -17 -2 -21 -16 -3 -12 -10 -18 -17 -14 -8 5 -8 3 0 -8 7 -8
8 -22 3 -34 -4 -11 -8 -16 -8 -11 -2 17 -31 -17 -31 -36 0 -12 -4 -17 -12 -12
-7 4 -8 3 -4 -4 9 -15 34 -5 41 16 3 10 23 29 44 43 35 25 39 26 66 11 16 -8
50 -35 75 -59 69 -68 112 -87 200 -87 106 -1 160 32 210 127 11 20 25 37 31
37 6 0 7 -6 3 -12 -5 -8 0 -7 11 2 10 8 16 10 12 3 -4 -6 -3 -14 3 -18 5 -3
10 -16 10 -28 0 -11 11 -32 24 -46 26 -28 45 -79 39 -99 -9 -24 -58 -42 -92
-32 -17 5 -31 7 -31 4 0 -3 -10 0 -22 7 -17 8 -15 3 10 -21 18 -17 37 -28 44
-24 7 4 8 3 4 -4 -13 -22 42 -13 70 12 l28 23 43 -33 c24 -18 62 -39 84 -45
32 -10 41 -18 46 -41 3 -15 9 -25 14 -22 5 3 9 0 9 -5 0 -6 -5 -11 -11 -11 -5
0 -8 -4 -5 -8 15 -25 -83 -167 -164 -236 -81 -69 -162 -96 -313 -103 -166 -8
-254 14 -425 106 -85 46 -212 182 -228 245 -3 14 -9 26 -13 26 -3 0 -7 18 -7
40 -1 25 3 37 10 34 6 -3 2 2 -8 10 -11 9 -16 16 -12 16 5 0 4 6 -1 13 -6 6
-9 31 -8 55 2 23 -1 42 -6 42 -5 0 -9 -9 -9 -19 0 -43 -9 -50 -48 -39 -82 23
-112 68 -112 171 0 62 39 107 93 107 47 0 60 -20 64 -97 4 -92 13 -92 13 -1 0
87 -9 78 135 123 50 15 119 38 155 50 l65 23 7 -46 c4 -26 5 -49 2 -51z m2614
-69 c17 -33 22 -56 20 -95 -3 -47 -5 -52 -25 -51 -13 0 -23 -3 -23 -8 0 -4 11
-8 25 -8 18 0 26 7 31 25 14 54 25 21 23 -67 -1 -51 1 -106 6 -121 6 -23 3
-33 -19 -55 -14 -15 -36 -42 -48 -61 -49 -74 -122 -101 -241 -90 -140 13 -244
96 -285 226 -12 38 -22 76 -22 86 0 10 -8 17 -20 17 -83 0 -133 118 -75 175
27 28 76 33 95 10 18 -21 29 -19 36 9 7 27 38 42 113 52 47 6 48 6 54 -24 7
-36 50 -88 90 -108 38 -20 122 -20 153 1 40 26 54 59 67 151 l12 89 5 -55 c3
-30 15 -74 28 -98z m135 125 c36 -16 42 -43 27 -123 -14 -72 -35 -92 -85 -80
-42 11 -64 59 -64 140 0 39 3 74 6 79 7 11 77 1 116 -16z m-2043 -16 c0 -4 10
-6 23 -4 14 3 29 -2 36 -11 8 -9 20 -16 27 -16 8 0 14 -7 14 -15 0 -12 3 -13
19 -3 15 9 25 9 46 0 14 -7 23 -17 20 -22 -3 -6 1 -7 10 -4 8 4 22 1 30 -6 19
-16 20 -114 2 -132 -8 -7 -12 -21 -9 -32 3 -12 1 -17 -5 -13 -7 4 -9 0 -6 -11
5 -20 -14 -41 -44 -46 -13 -3 -19 2 -19 15 0 12 5 18 13 15 7 -3 15 0 19 6 4
7 3 8 -5 4 -6 -4 -14 0 -17 9 -5 11 -10 13 -19 5 -9 -8 -15 -8 -20 0 -3 6 -11
8 -16 4 -5 -3 -7 -10 -4 -15 3 -5 -2 -6 -11 -2 -10 3 -15 2 -12 -3 4 -5 -5 -9
-18 -9 -17 0 -23 4 -19 15 5 11 1 10 -12 -3 -16 -15 -16 -19 -3 -27 8 -5 23
-10 33 -11 9 -1 22 -3 27 -4 6 -1 15 -3 20 -4 17 -2 11 -18 -7 -18 -31 -2 -93
17 -93 28 0 6 -4 8 -8 5 -11 -7 -60 92 -64 129 -3 29 -1 30 42 33 25 2 50 8
55 14 7 7 6 9 -1 5 -7 -4 -17 0 -24 8 -10 12 -7 14 19 10 27 -3 31 -1 27 18
-1 12 -1 16 1 10 6 -16 16 -16 31 -1 14 14 16 38 2 38 -5 0 -7 -8 -4 -17 4
-14 2 -13 -7 2 -20 33 -59 49 -59 24 0 -5 4 -8 8 -5 4 2 9 -5 9 -16 2 -19 1
-19 -11 -3 -7 10 -18 15 -24 11 -13 -8 -54 33 -46 46 7 11 54 11 54 -1z m-765
-101 c1 -10 -2 -17 -6 -14 -4 2 -7 13 -6 24 2 23 10 17 12 -10z m1342 -15 c0
-8 -4 -12 -9 -9 -5 3 -6 10 -3 15 9 13 12 11 12 -6z m-41 -42 c-5 -12 -10 -13
-18 -5 -8 8 -8 15 3 28 15 18 25 4 15 -23z m51 2 c0 -8 -4 -12 -9 -9 -5 3 -6
10 -3 15 9 13 12 11 12 -6z m1478 -75 c-3 -5 -12 -10 -18 -10 -7 0 -6 4 3 10
19 12 23 12 15 0z m260 -61 c17 -7 33 -12 37 -11 3 1 11 -13 17 -30 13 -35 6
-44 -41 -55 -16 -3 -28 -12 -29 -22 0 -11 -2 -12 -6 -3 -4 10 -8 10 -21 0 -13
-11 -15 -11 -7 2 6 12 5 12 -4 4 -17 -15 -10 -49 9 -50 8 0 23 4 34 9 13 6 16
6 12 -2 -7 -10 6 -16 28 -12 4 1 13 -2 20 -7 6 -4 20 -8 31 -7 11 0 28 -3 39
-8 14 -7 16 -6 11 4 -5 7 -4 10 3 5 12 -7 177 -18 289 -19 68 0 72 -2 78 -25
3 -13 9 -22 12 -19 3 4 17 -2 31 -13 13 -11 29 -17 36 -13 6 3 8 2 3 -2 -11
-13 34 -57 48 -45 8 6 11 2 11 -15 0 -13 -4 -21 -8 -19 -5 3 -5 11 -2 17 5 9
3 9 -6 0 -11 -10 -11 -15 1 -29 9 -12 10 -15 2 -10 -8 4 -13 2 -13 -7 0 -8
-20 -23 -45 -34 -30 -12 -48 -26 -54 -44 -5 -14 -18 -29 -30 -32 -12 -3 -18
-1 -15 4 3 6 -6 8 -21 5 -15 -3 -28 -6 -29 -8 0 -2 -7 -14 -14 -26 -16 -29 -7
-79 16 -86 10 -3 26 -4 38 -2 11 2 27 0 35 -4 11 -7 9 -9 -6 -9 -11 0 -71 -2
-132 -5 -113 -6 -136 0 -87 22 32 15 24 28 -26 43 -26 8 -40 18 -40 29 0 18
47 68 58 61 3 -2 14 7 25 20 22 31 14 57 -22 65 -39 8 -54 18 -57 38 -3 24 -8
27 -52 44 -69 26 -127 35 -207 33 -102 -2 -125 3 -118 27 4 17 -2 18 -55 18
-60 -1 -92 13 -92 40 0 8 11 20 25 26 57 26 35 78 -32 78 -31 0 -33 2 -33 33
0 47 10 55 65 59 101 7 261 0 290 -13z m-2197 -159 c-9 -14 -14 -16 -20 -7
-13 20 -9 27 12 27 18 0 19 -3 8 -20z m1917 -87 c16 -4 32 -7 35 -8 6 -2 54
-23 87 -38 12 -5 29 -7 38 -3 9 3 13 2 10 -3 -7 -12 32 -27 80 -30 14 -1 16
-4 8 -12 -9 -9 -8 -18 4 -35 14 -23 14 -25 -17 -54 -18 -16 -36 -27 -41 -24
-5 3 -9 0 -9 -6 0 -6 -4 -9 -9 -6 -5 3 -20 -4 -35 -15 -14 -11 -26 -17 -26
-13 0 4 -11 -6 -25 -22 -24 -28 -24 -29 -5 -32 26 -4 26 -28 0 -35 -16 -4 -20
-11 -16 -30 4 -24 3 -24 -35 -14 -21 5 -39 14 -39 19 0 5 -5 6 -12 2 -6 -4
-17 1 -25 11 -7 11 -13 15 -13 11 0 -4 -6 -4 -12 1 -13 7 -17 9 -37 12 -5 0
-12 8 -15 17 -5 13 -3 14 7 6 10 -8 13 -6 13 8 0 10 -4 16 -8 14 -4 -3 -8 4
-8 15 0 12 -5 21 -11 21 -5 0 -8 4 -4 9 3 5 2 12 -3 15 -4 2 -8 -4 -9 -14 -1
-11 2 -22 7 -25 4 -3 6 -13 3 -23 -5 -20 -32 -21 -76 -3 -16 6 -39 11 -52 11
-37 0 -77 19 -112 53 -45 43 -42 14 3 -31 34 -34 54 -76 54 -112 -1 -11 -4 -9
-12 5 -6 11 -29 39 -51 62 -39 40 -39 42 -33 95 4 29 10 58 14 64 4 6 36 14
70 17 35 4 84 16 108 26 24 11 44 17 44 14 0 -8 45 59 52 78 7 18 46 18 113 2z
m-3238 -130 c4 -38 2 -41 -17 -36 -22 6 -23 7 -14 52 9 43 26 34 31 -16z
m2688 17 c4 -11 19 -27 35 -35 24 -12 29 -13 34 0 3 9 0 12 -8 9 -7 -3 -19 3
-27 12 -9 12 -10 15 -1 10 6 -4 12 -2 12 4 0 7 6 8 19 1 10 -6 22 -7 26 -3 4
4 3 -2 -2 -13 -15 -31 -10 -50 13 -53 16 -2 20 -8 16 -28 -2 -13 -8 -26 -12
-29 -11 -7 -106 69 -120 94 -13 24 -13 51 -1 51 5 0 13 -9 16 -20z m-1341 -19
c3 -5 15 -11 26 -14 11 -3 18 -1 15 3 -3 5 8 5 24 0 16 -4 32 -5 36 -2 3 4 10
0 15 -8 8 -13 10 -13 10 -1 0 11 4 10 16 -5 8 -10 12 -12 8 -4 -7 13 -5 13 9
1 18 -15 23 -26 7 -16 -5 3 -10 -3 -10 -15 0 -13 -4 -19 -12 -14 -7 5 -8 3 -3
-6 6 -10 11 -10 20 4 12 15 13 15 19 0 4 -9 4 -19 1 -22 -3 -3 -5 1 -5 8 0 7
-16 -4 -36 -26 -19 -21 -32 -32 -28 -24 5 10 0 9 -14 -4 -23 -20 -29 -36 -13
-36 4 0 25 11 45 25 40 27 63 35 30 10 -10 -8 -13 -15 -7 -15 15 0 -1 -50 -20
-62 -7 -4 -12 -12 -12 -18 0 -10 -10 -11 -33 -3 -7 3 -21 3 -32 0 -11 -3 -27
1 -35 9 -12 12 -14 12 -12 -4 0 -11 9 -18 21 -19 12 0 30 -2 41 -3 28 -5 -164
-16 -197 -11 -38 5 -37 34 2 61 31 22 31 44 1 67 -16 11 -69 27 -84 24 -16 -3
13 38 31 43 10 4 31 22 47 42 15 19 31 31 34 25 4 -6 15 -5 31 3 30 17 57 19
64 7z m1345 -51 c34 -33 76 -68 93 -76 28 -15 30 -18 24 -56 -4 -22 -11 -49
-17 -60 -10 -18 -11 -18 -42 7 -18 14 -48 38 -67 52 -19 15 -54 44 -76 66
l-42 39 27 44 c14 24 28 44 31 44 3 0 34 -27 69 -60z m-1144 39 c11 -17 2 -18
-19 -3 -17 12 -17 14 -4 14 9 0 20 -5 23 -11z m-1340 -40 c11 -16 2 -19 -39
-12 -26 4 -33 9 -24 14 18 12 56 11 63 -2z m3489 5 c30 -11 16 -30 -31 -42
-40 -11 -49 -11 -62 2 -13 14 -11 17 20 30 38 17 50 19 73 10z m-3374 -22 c0
-35 -24 -72 -43 -66 -11 4 -25 -2 -37 -16 l-19 -22 -16 32 c-20 38 -14 47 48
71 56 22 67 23 67 1z m1240 -26 c0 -2 -8 -10 -17 -17 -16 -13 -17 -12 -4 4 13
16 21 21 21 13z m-1147 -60 c67 -62 134 -88 209 -80 43 4 46 3 41 -17 -7 -27
-41 -39 -76 -26 -15 5 -30 7 -33 4 -3 -3 4 -8 15 -12 28 -8 27 -14 -14 -95
-34 -67 -50 -124 -19 -67 8 15 18 27 22 27 5 0 23 -15 40 -33 28 -29 39 -58
82 -216 27 -101 47 -188 44 -192 -12 -20 -40 -7 -53 23 -8 18 -45 98 -83 177
-37 79 -68 152 -68 163 0 11 -4 17 -9 13 -14 -8 -82 32 -115 68 -67 74 -98
117 -93 129 4 9 6 9 7 -2 0 -8 13 -24 28 -35 l27 -19 -17 24 c-60 85 -73 145
-38 180 26 26 34 25 59 -7 12 -14 24 -23 28 -19 4 3 -6 20 -22 36 -46 48 -25
35 38 -24z m1357 17 c-1 -21 -21 -35 -59 -40 -48 -7 -55 9 -13 30 29 16 72 22
72 10z m548 -7 c12 -1 22 -6 22 -12 0 -14 -33 -14 -42 0 -5 7 -8 7 -8 -2 0 -7
-4 -10 -10 -7 -17 10 -11 -12 7 -26 11 -9 14 -10 9 -2 -5 9 -2 11 8 7 9 -3 16
-10 16 -15 0 -10 -48 -12 -102 -3 -33 6 -38 10 -38 34 0 38 9 43 65 34 28 -4
60 -8 73 -8z m1360 -16 c38 0 24 -15 -31 -34 -57 -19 -88 -19 -95 2 -5 16 56
43 83 37 11 -3 30 -5 43 -5z m-2118 -25 c0 -8 -4 -15 -9 -15 -13 0 -22 16 -14
24 11 11 23 6 23 -9z m2769 2 c15 -19 4 -27 -36 -27 -36 0 -43 13 -15 29 23
14 38 13 51 -2z m-3557 -35 c-1 -7 2 -22 8 -32 7 -14 7 -20 0 -20 -15 0 -12
-14 9 -37 34 -36 67 -163 42 -163 -4 0 -21 18 -36 40 -15 21 -51 61 -79 89
l-53 49 11 46 11 47 45 -3 c30 -2 44 -7 42 -16z m268 -46 c8 -2 -9 -4 -37 -5
-29 0 -53 3 -53 7 0 7 52 6 90 -2z m47 -2 c-3 -3 -12 -4 -19 -1 -8 3 -5 6 6 6
11 1 17 -2 13 -5z m1745 -11 c19 -17 25 -63 9 -63 -13 0 -51 50 -51 66 0 19
20 18 42 -3z m122 -45 c14 -36 14 -38 -3 -38 -10 0 -23 6 -29 13 -15 18 -25
64 -17 77 10 16 29 -5 49 -52z m-2147 -137 c45 -54 53 -70 81 -178 18 -65 45
-159 62 -208 37 -110 26 -128 -36 -58 -41 47 -68 108 -149 341 -26 73 -34 112
-30 133 4 16 10 29 14 29 4 0 30 -27 58 -59z m2131 -199 c7 -5 26 -44 43 -88
56 -146 91 -239 94 -249 1 -5 7 -23 14 -39 6 -16 9 -31 7 -34 -3 -2 -8 7 -12
22 -3 14 -10 26 -15 26 -5 0 -7 -6 -5 -13 1 -6 1 -9 -1 -4 -3 4 -11 7 -19 7
-8 0 -14 4 -14 10 0 5 6 7 14 4 11 -4 13 0 9 17 -4 13 -8 18 -11 11 -2 -7 -8
-10 -13 -6 -5 3 -9 -5 -10 -18 0 -13 -3 -17 -6 -10 -2 6 -8 10 -13 7 -4 -2
-26 71 -49 164 -22 93 -44 176 -47 185 -7 17 12 21 34 8z m729 -204 c-2 -13
-4 -5 -4 17 -1 22 1 32 4 23 2 -10 2 -28 0 -40z m114 27 c5 4 10 -2 10 -12 1
-10 5 -4 9 12 l8 30 1 -32 1 -31 -65 -1 c-58 0 -65 2 -65 19 0 15 7 20 24 20
14 0 28 5 31 10 4 6 12 4 21 -5 9 -8 20 -13 25 -10z m230 7 c17 2 25 -3 31
-22 7 -22 7 -21 4 8 -1 17 1 32 6 32 4 0 8 -16 8 -36 0 -29 -3 -35 -16 -30 -9
3 -31 6 -50 6 -25 0 -34 4 -35 18 -1 16 -2 16 -6 0 -2 -10 -12 -18 -20 -18 -9
0 -22 8 -30 18 -8 11 -12 12 -11 3 5 -22 -19 -24 -25 -1 -5 18 -1 20 44 20 30
0 49 4 49 11 0 8 4 8 14 -1 8 -6 25 -10 37 -8z m-171 -17 c0 -14 -4 -25 -10
-25 -5 0 -10 11 -10 25 0 14 5 25 10 25 6 0 10 -11 10 -25z"/>
<path d="M3306 2095 c-27 -14 -58 -33 -69 -42 -22 -21 -47 -66 -47 -85 1 -7
10 4 20 24 25 47 73 83 141 107 37 13 46 20 29 20 -14 0 -47 -11 -74 -24z"/>
<path d="M3420 1963 c14 -2 52 -13 85 -23 72 -22 158 -40 188 -39 21 1 20 1
-3 9 -14 4 -56 13 -95 20 -38 7 -84 19 -102 27 -18 7 -47 12 -65 12 -27 -1
-28 -3 -8 -6z"/>
<path d="M2154 1887 c-4 -7 -4 -9 1 -5 4 4 14 3 22 -3 8 -7 13 -8 13 -1 0 15
-28 23 -36 9z"/>
<path d="M2203 1855 c0 -8 4 -12 9 -9 5 3 6 10 3 15 -9 13 -12 11 -12 -6z"/>
<path d="M2021 1851 c-18 -12 -5 -31 19 -28 28 4 37 17 20 27 -18 12 -22 12
-39 1z"/>
<path d="M2153 1847 c0 -7 9 -14 19 -14 11 -1 18 5 18 15 0 15 -2 15 -10 2 -6
-10 -10 -11 -10 -2 0 6 -4 12 -8 12 -5 0 -9 -6 -9 -13z"/>
<path d="M1321 1845 c-2 -25 15 -31 34 -12 20 20 20 20 -2 8 -16 -8 -23 -8
-26 2 -3 6 -6 8 -6 2z"/>
<path d="M1312 1787 c-9 -10 -6 -13 13 -13 19 0 22 3 13 13 -6 7 -12 13 -13
13 -1 0 -7 -6 -13 -13z"/>
<path d="M1220 1767 c0 -5 -3 -6 -7 -4 -5 3 -17 1 -28 -4 -16 -6 -12 -8 17 -8
38 -1 68 7 68 18 0 3 -11 6 -25 6 -14 0 -25 -4 -25 -8z"/>
<path d="M1047 1734 c3 -8 9 -12 13 -9 5 3 11 -1 13 -7 4 -8 6 -7 6 3 1 9 -8
19 -18 22 -14 3 -18 1 -14 -9z"/>
<path d="M1022 1735 c4 -4 3 -14 -4 -22 -8 -11 -7 -12 6 -7 19 7 21 20 4 30
-7 4 -10 4 -6 -1z"/>
<path d="M776 1315 c4 -16 7 -38 8 -47 0 -10 3 -18 6 -18 3 0 14 -16 24 -35
11 -19 21 -33 24 -31 2 3 18 -11 34 -30 17 -19 33 -32 36 -29 3 2 11 -3 18
-13 15 -19 19 -5 5 17 -5 7 -14 10 -20 7 -6 -4 -11 -3 -11 3 0 5 5 11 12 13 8
3 5 16 -11 41 -26 42 -29 44 -27 20 0 -10 10 -25 20 -34 17 -14 17 -16 3 -16
-10 0 -15 2 -13 5 2 2 -3 12 -12 21 -33 35 -64 80 -88 126 l-15 30 7 -30z"/>
<path d="M1279 1239 c-9 -6 4 -9 40 -9 30 0 52 2 50 4 -11 9 -77 13 -90 5z"/>
<path d="M1380 1229 c0 -5 6 -9 14 -9 19 0 105 -39 141 -63 18 -13 25 -15 18
-6 -27 34 -173 100 -173 78z"/>
<path d="M3553 1323 c9 -2 23 -2 30 0 6 3 -1 5 -18 5 -16 0 -22 -2 -12 -5z"/>
<path d="M3608 1323 c6 -2 18 -2 25 0 6 3 1 5 -13 5 -14 0 -19 -2 -12 -5z"/>
<path d="M3674 1316 c32 -18 76 -22 60 -6 -6 6 -28 13 -50 16 l-39 6 29 -16z"/>
<path d="M3400 1290 c0 -5 7 -7 15 -4 8 4 15 8 15 10 0 2 -7 4 -15 4 -8 0 -15
-4 -15 -10z"/>
<path d="M1895 1530 c-4 -6 -1 -17 5 -26 11 -12 14 -12 26 3 7 10 14 21 14 26
0 11 -38 8 -45 -3z m35 -4 c0 -2 -7 -7 -16 -10 -8 -3 -12 -2 -9 4 6 10 25 14
25 6z"/>
<path d="M1850 1510 c-8 -5 -13 -10 -10 -11 3 0 13 -2 23 -4 9 -2 17 3 17 11
0 16 -9 18 -30 4z"/>
<path d="M3760 1020 c-8 -5 -12 -11 -10 -14 3 -2 14 2 24 10 22 15 10 19 -14
4z"/>
<path d="M2071 974 c0 -11 3 -14 6 -6 3 7 2 16 -1 19 -3 4 -6 -2 -5 -13z"/>
<path d="M1000 904 c0 -16 126 -101 136 -91 3 3 -5 11 -18 18 -12 6 -42 27
-65 45 -41 33 -53 40 -53 28z"/>
<path d="M3320 2787 c0 -4 -4 -6 -9 -3 -5 4 -7 -3 -4 -14 7 -26 15 -31 33 -19
13 7 12 9 -2 9 -10 0 -18 5 -18 10 0 15 16 12 29 -4 16 -19 -20 -41 -37 -24
-8 8 -12 8 -12 2 0 -14 35 -45 43 -39 4 3 5 2 2 -2 -2 -3 7 -17 21 -30 26 -24
50 -22 40 4 -4 8 -1 11 5 8 6 -4 8 -12 6 -19 -6 -15 160 -19 169 -4 4 6 -1 8
-15 3 -30 -9 -61 3 -70 28 -12 32 -3 47 29 47 31 0 60 22 60 46 0 9 -11 14
-36 14 -33 0 -35 -2 -23 -17 10 -11 10 -14 2 -9 -8 4 -13 1 -13 -8 0 -10 -6
-13 -17 -9 -11 4 -14 3 -9 -5 4 -7 2 -12 -4 -12 -6 0 -9 -4 -6 -9 5 -8 -12
-14 -76 -27 -9 -2 -23 3 -31 11 -8 8 -18 11 -23 7 -5 -4 -2 1 5 11 9 11 27 17
52 17 35 0 39 3 39 26 0 25 -1 25 -65 22 -36 -1 -65 -6 -65 -11z"/>
<path d="M3460 2780 c0 -11 5 -20 11 -20 6 0 9 7 6 14 -4 10 -1 13 7 10 8 -3
16 -2 19 3 3 5 -5 10 -19 11 -18 1 -24 -3 -24 -18z"/>
<path d="M4113 2785 c0 -8 4 -12 9 -9 5 3 6 10 3 15 -9 13 -12 11 -12 -6z"/>
<path d="M4143 2779 c-5 -17 -11 -20 -37 -16 -17 3 -25 3 -18 0 6 -2 10 -8 8
-12 -4 -6 29 -7 44 -1 3 1 7 2 10 2 3 0 7 10 8 24 2 30 -8 32 -15 3z"/>
<path d="M4352 2780 c-14 -14 -22 -33 -22 -55 0 -19 -4 -36 -10 -40 -14 -9 -2
-31 26 -44 45 -20 275 -33 361 -21 23 4 46 3 50 -1 4 -4 9 3 9 17 1 14 9 33
18 43 12 13 13 20 4 29 -7 7 -17 12 -23 12 -6 0 -19 6 -29 13 -14 10 -15 18
-7 40 l11 27 -183 0 c-171 0 -185 -1 -205 -20z m297 -36 c39 -8 39 -19 0 -39
-41 -22 -83 -16 -87 12 -4 28 28 38 87 27z"/>
<path d="M4923 2765 c-13 -40 -7 -75 16 -92 34 -26 41 -15 41 57 0 67 -1 70
-23 70 -18 0 -26 -8 -34 -35z"/>
<path d="M473 2753 c-6 -15 15 -35 28 -27 4 2 9 -2 12 -8 2 -7 4 -1 3 14 -1
30 -33 46 -43 21z"/>
<path d="M3280 2760 c0 -5 5 -10 11 -10 5 0 7 5 4 10 -3 6 -8 10 -11 10 -2 0
-4 -4 -4 -10z"/>
<path d="M3964 2759 c-9 -15 11 -33 30 -26 9 4 13 13 10 22 -7 17 -30 20 -40
4z"/>
<path d="M3280 2716 c0 -18 8 -27 30 -35 27 -9 29 -8 21 7 -5 9 -19 25 -30 34
-20 17 -21 17 -21 -6z"/>
<path d="M0 2719 c0 -5 5 -7 10 -4 5 3 10 8 10 11 0 2 -4 4 -10 4 -5 0 -10 -5
-10 -11z"/>
<path d="M660 2700 c-9 -6 -10 -10 -3 -10 6 0 15 5 18 10 8 12 4 12 -15 0z"/>
<path d="M2356 2671 c2 -19 8 -39 13 -44 6 -6 9 -3 7 9 -2 11 2 22 8 26 7 5 5
8 -6 8 -9 0 -19 8 -21 18 -2 9 -3 2 -1 -17z"/>
<path d="M4140 2700 c0 -5 5 -10 11 -10 5 0 7 5 4 10 -3 6 -8 10 -11 10 -2 0
-4 -4 -4 -10z"/>
<path d="M0 2682 c0 -7 6 -12 13 -12 8 0 7 -3 -3 -10 -8 -5 -12 -11 -9 -14 2
-3 11 -1 19 4 13 8 13 12 -2 27 -11 11 -18 13 -18 5z"/>
<path d="M40 2651 c0 -4 11 -6 25 -3 14 2 25 6 25 8 0 2 -11 4 -25 4 -14 0
-25 -4 -25 -9z"/>
<path d="M4945 2498 c-33 -12 -47 -29 -56 -71 -8 -35 22 -67 63 -67 l28 0 0
75 c0 41 -1 75 -2 74 -2 0 -16 -5 -33 -11z"/>
<path d="M4675 2487 c10 -8 25 -12 33 -10 17 7 10 13 -24 19 -27 5 -28 4 -9
-9z"/>
<path d="M313 2466 c2 -6 9 -11 15 -11 5 0 14 -3 18 -7 3 -4 -3 -6 -14 -3 -27
5 -36 -9 -17 -25 8 -7 13 -16 10 -20 -3 -4 3 -14 12 -21 12 -10 14 -10 9 -1
-9 15 6 16 21 1 11 -11 144 -20 177 -11 17 5 16 6 -5 18 -13 7 -18 13 -11 14
6 0 12 9 12 19 0 11 6 22 13 25 6 3 0 3 -16 1 -16 -2 -25 0 -22 6 4 5 11 7 16
4 5 -4 9 -2 9 4 0 10 32 7 51 -5 7 -4 10 -1 7 7 -3 9 -23 15 -59 17 -39 2 -50
0 -39 -8 9 -6 10 -10 3 -10 -6 0 -14 4 -17 8 -8 14 -178 12 -173 -2z m55 -21
c-3 -3 -9 2 -12 12 -6 14 -5 15 5 6 7 -7 10 -15 7 -18z m-16 -20 c10 2 18 -6
21 -23 l5 -27 -18 22 c-9 12 -20 20 -22 17 -3 -2 -11 4 -19 13 -12 16 -12 17
1 7 8 -6 22 -10 32 -9z"/>
<path d="M3816 2465 c-12 -12 -16 -13 -16 -3 0 10 -3 9 -10 -2 -10 -16 13 -36
30 -25 6 4 7 -1 3 -11 -4 -12 -3 -15 5 -10 7 4 12 2 12 -4 0 -6 5 -8 12 -4 7
4 8 3 4 -5 -4 -6 -11 -9 -16 -6 -4 3 -10 -1 -13 -8 -5 -13 15 -15 168 -22 61
-2 75 0 58 8 -13 5 -23 16 -23 24 0 8 -4 12 -9 9 -5 -4 -7 8 -4 25 3 21 1 29
-6 24 -6 -3 -11 -1 -11 6 0 7 9 9 23 5 12 -3 25 -6 30 -6 4 0 7 -5 7 -11 0 -6
-7 -9 -15 -5 -9 3 -15 0 -15 -9 0 -18 10 -19 32 -1 10 7 14 17 10 21 -4 5 1 5
11 2 9 -4 17 -3 17 2 0 16 -13 21 -27 10 -7 -6 -13 -7 -13 -2 0 5 -18 10 -41
12 -30 1 -39 -1 -33 -10 4 -8 3 -9 -4 -5 -20 12 -132 17 -132 5 0 -5 4 -8 9
-5 5 3 11 -3 14 -13 3 -13 0 -18 -11 -17 -8 2 -16 11 -18 20 -4 26 -10 29 -28
11z"/>
<path d="M4673 2442 c0 -12 3 -19 6 -17 2 3 11 -1 20 -7 10 -8 8 -3 -4 12 -11
14 -21 27 -22 29 -1 2 -1 -6 0 -17z"/>
<path d="M4400 2229 c-19 -3 -29 -7 -22 -8 8 0 10 -6 6 -13 -6 -10 -4 -10 8 0
13 10 18 10 24 1 4 -8 3 -9 -4 -5 -7 4 -12 2 -12 -3 0 -14 17 -14 26 0 4 8 9
7 15 -2 6 -10 9 -7 10 11 1 17 3 19 6 8 2 -10 10 -18 16 -18 7 0 6 -4 -3 -10
-13 -8 -12 -10 3 -10 10 0 16 -4 13 -9 -3 -4 12 -8 34 -8 22 0 37 4 34 8 -3 5
1 6 9 3 8 -3 20 2 27 11 12 15 11 19 -10 36 -26 20 -101 23 -180 8z"/>
<path d="M4904 1923 c3 -3 -3 -13 -14 -20 -15 -10 -19 -22 -15 -42 3 -20 1
-28 -10 -28 -8 0 -11 5 -8 10 4 6 -1 8 -11 4 -9 -4 -14 -3 -11 2 3 5 2 12 -3
15 -4 2 -9 -7 -10 -22 -2 -30 52 -94 73 -85 8 2 23 0 34 -6 14 -8 22 -8 27 1
5 7 3 8 -6 3 -9 -5 -11 -4 -6 3 4 8 2 10 -8 6 -10 -4 -20 5 -31 28 -12 24 -12
28 -1 15 11 -14 15 -15 20 -5 3 7 3 2 0 -11 -5 -19 -3 -23 10 -18 9 4 21 -2
29 -14 14 -19 15 -19 15 6 0 16 -6 25 -16 25 -14 0 -41 27 -42 43 0 4 14 7 30
7 25 0 30 4 30 23 0 28 -27 56 -60 62 -12 2 -20 2 -16 -2z m1 -83 c3 -5 1 -10
-4 -10 -6 0 -11 5 -11 10 0 6 2 10 4 10 3 0 8 -4 11 -10z m-20 -48 c9 -11 11
-23 6 -26 -5 -3 -12 5 -15 19 -4 15 -11 22 -20 19 -8 -3 -16 -1 -20 4 -11 19
35 4 49 -16z"/>
<path d="M4560 1630 c0 -5 5 -12 10 -15 6 -4 7 -11 4 -17 -5 -7 -1 -9 9 -5 24
9 29 -6 11 -32 -15 -21 -17 -22 -35 -5 -15 13 -18 14 -14 3 3 -8 -3 -24 -14
-36 -11 -11 -17 -24 -13 -29 4 -4 2 -4 -5 0 -6 3 -14 2 -18 -3 -3 -6 -12 -8
-20 -4 -8 3 -15 0 -15 -6 0 -6 -5 -11 -11 -11 -5 0 -7 5 -3 12 5 7 3 8 -6 3
-10 -6 -8 -12 9 -27 13 -10 28 -15 35 -11 7 4 7 2 -1 -8 -10 -12 -10 -18 0
-29 10 -10 9 -11 -2 -5 -9 5 -12 4 -8 -2 4 -6 47 -10 97 -10 50 0 93 -3 97 -6
3 -4 21 3 40 14 23 14 41 19 56 14 46 -15 135 -14 149 2 10 13 8 18 -15 35
-15 11 -27 24 -27 29 0 5 18 20 40 34 22 14 40 30 40 35 0 18 -76 29 -187 27
-87 -2 -114 0 -118 11 -3 7 -9 10 -15 7 -5 -3 -7 0 -4 8 3 8 1 17 -4 20 -16
11 -62 16 -62 7z m50 -16 c0 -2 -7 -4 -15 -4 -8 0 -15 4 -15 10 0 5 7 7 15 4
8 -4 15 -8 15 -10z m-93 -196 c-3 -8 -6 -5 -6 6 -1 11 2 17 5 13 3 -3 4 -12 1
-19z"/>
<path d="M4530 1623 c0 -7 5 -13 10 -13 6 0 10 -6 10 -14 0 -8 5 -18 10 -21
17 -10 11 11 -10 36 -10 13 -19 18 -20 12z"/>
<path d="M4580 1570 c-6 -11 -8 -20 -6 -20 3 0 10 9 16 20 6 11 8 20 6 20 -3
0 -10 -9 -16 -20z"/>
<path d="M4480 1499 c0 -5 5 -7 10 -4 6 3 10 8 10 11 0 2 -4 4 -10 4 -5 0 -10
-5 -10 -11z"/>
<path d="M4434 1420 c0 -19 4 -26 13 -23 7 3 13 13 13 23 0 10 -6 20 -13 23
-9 3 -13 -4 -13 -23z"/>
<path d="M1525 60 c3 -5 8 -10 11 -10 2 0 4 5 4 10 0 6 -5 10 -11 10 -5 0 -7
-4 -4 -10z"/>
<path d="M1559 63 c-1 -5 -1 -16 0 -25 1 -10 -3 -18 -8 -18 -6 0 -11 -4 -11
-8 0 -5 7 -9 15 -9 11 0 15 10 13 34 -2 31 -6 43 -9 26z"/>
<path d="M1580 33 c0 -24 3 -33 9 -25 7 12 4 62 -5 62 -2 0 -4 -17 -4 -37z"/>
<path d="M1840 31 c30 -17 64 -30 75 -30 12 1 0 10 -30 24 -77 35 -107 39 -45
6z"/>
<path d="M1600 40 c0 -5 5 -10 10 -10 6 0 10 5 10 10 0 6 -4 10 -10 10 -5 0
-10 -4 -10 -10z"/>
<path d="M1463 23 c1 -17 4 -19 14 -11 15 12 18 22 4 14 -5 -4 -11 0 -14 6 -3
7 -4 3 -4 -9z"/>
<path d="M1624 13 c10 -11 37 -12 30 -2 -3 5 -12 9 -21 9 -9 0 -13 -3 -9 -7z"/>
</g>
</svg>
